<svg id="Layer_1" data-name="Layer 1" xmlns="http://www.w3.org/2000/svg" viewBox="0 0 298.85 84.32"><defs><style>.cls-1,.cls-2{fill:#a3a3a3;}.cls-2{opacity:0.05;}</style></defs><path class="cls-1" d="M49.26.08h8.29A1.5,1.5,0,0,1,59,1.58V82.82a1.5,1.5,0,0,1-1.5,1.5H49.26a5,5,0,0,1-5-5V5.08a5,5,0,0,1,5-5Z"/><path class="cls-2" d="M27.13,14.48h8.29a1.5,1.5,0,0,1,1.5,1.5V68.42a1.5,1.5,0,0,1-1.5,1.5H27.13a5,5,0,0,1-5-5V19.48a5,5,0,0,1,5-5Z"/><path class="cls-2" d="M5,29.77h8.29a1.5,1.5,0,0,1,1.5,1.5V52.63a1.5,1.5,0,0,1-1.5,1.5H5a5,5,0,0,1-5-5V34.77a5,5,0,0,1,5-5Z"/><rect class="cls-1" x="142.03" y="-39.83" width="14.79" height="164.06" rx="3" transform="translate(191.62 -107.22) rotate(90)"/><path class="cls-1" d="M244.8,0h8.29a1.5,1.5,0,0,1,1.5,1.5V82.73a1.5,1.5,0,0,1-1.5,1.5H244.8a5,5,0,0,1-5-5V5a5,5,0,0,1,5-5Z" transform="translate(494.38 84.23) rotate(-180)"/><path class="cls-2" d="M266.93,14.4h8.29a1.5,1.5,0,0,1,1.5,1.5V68.33a1.5,1.5,0,0,1-1.5,1.5h-8.29a5,5,0,0,1-5-5V19.4a5,5,0,0,1,5-5Z" transform="translate(538.64 84.23) rotate(-180)"/><path class="cls-2" d="M289.06,29.94h8.29a1.5,1.5,0,0,1,1.5,1.5V52.79a1.5,1.5,0,0,1-1.5,1.5h-8.29a5,5,0,0,1-5-5V34.94a5,5,0,0,1,5-5Z" transform="translate(582.9 84.23) rotate(-180)"/></svg>