<?xml version="1.0" standalone="no"?>
<!DOCTYPE svg PUBLIC "-//W3C//DTD SVG 20010904//EN"
 "http://www.w3.org/TR/2001/REC-SVG-20010904/DTD/svg10.dtd">
<svg version="1.0" xmlns="http://www.w3.org/2000/svg"
 width="700.000000pt" height="700.000000pt" viewBox="0 0 700.000000 700.000000"
 preserveAspectRatio="xMidYMid meet">
<metadata>
Created by potrace 1.14, written by Peter Selinger 2001-2017
</metadata>
<g transform="translate(0.000000,700.000000) scale(0.100000,-0.100000)"
fill="#000000" stroke="none">
<path d="M3264 6990 c-722 -50 -1386 -311 -1964 -769 -129 -103 -362 -332
-479 -471 -451 -537 -717 -1162 -803 -1885 -17 -142 -16 -585 0 -730 119
-1010 615 -1871 1422 -2461 285 -209 642 -393 968 -498 880 -284 1830 -216
2647 192 346 172 608 358 884 627 593 578 944 1297 1043 2140 7 62 13 220 13
365 0 334 -25 545 -100 847 -202 812 -693 1528 -1385 2018 -461 326 -1040 545
-1610 609 -170 20 -478 27 -636 16z m-1504 -2405 l0 -576 -127 3 -128 3 -3
560 c-1 308 0 566 3 573 3 9 39 12 130 12 l125 0 0 -575z m3705 327 c367 -258
377 -267 338 -320 -30 -40 -680 -492 -708 -492 -12 0 -33 9 -46 19 -21 17 -24
29 -27 110 l-4 90 -46 8 c-79 12 -233 7 -302 -11 -139 -36 -255 -112 -346
-229 -76 -97 -249 -361 -429 -652 -455 -739 -494 -795 -684 -986 -143 -143
-263 -229 -391 -278 -147 -57 -185 -61 -591 -61 l-369 0 0 293 0 294 138 6
c79 4 198 2 282 -5 126 -10 157 -9 234 5 206 38 384 166 548 398 25 35 158
251 295 479 138 228 290 478 339 555 269 425 500 644 774 733 89 30 175 41
377 48 l171 7 4 93 c2 73 7 96 22 113 41 45 59 36 421 -217z m-4030 -327 l0
-450 -114 -3 c-75 -2 -118 1 -127 9 -20 16 -21 884 -1 893 6 2 64 4 127 3
l115 -2 0 -450z m1205 324 c116 -14 233 -56 336 -120 155 -97 348 -299 507
-532 l59 -85 -144 -246 c-78 -135 -146 -245 -149 -246 -3 0 -62 73 -130 162
-256 335 -323 399 -474 459 -59 23 -68 24 -422 27 l-363 3 0 289 0 289 28 4
c60 9 673 6 752 -4z m1513 -1741 c310 -372 363 -418 509 -453 63 -15 310 -21
342 -9 13 5 16 23 16 89 0 46 3 91 6 100 9 22 59 46 81 38 42 -15 702 -486
708 -504 16 -49 1 -63 -349 -308 -363 -255 -382 -265 -422 -220 -15 16 -19 40
-22 120 l-4 99 -57 -8 c-110 -14 -290 -7 -385 17 -229 56 -449 205 -636 430
-92 111 -223 298 -217 309 14 24 252 431 263 450 8 12 16 22 19 22 2 0 69 -78
148 -172z m-2393 -753 l0 -576 -127 3 -128 3 -3 560 c-1 308 0 566 3 573 3 9
39 12 130 12 l125 0 0 -575z m-325 0 l0 -450 -105 -3 c-58 -2 -115 0 -127 3
l-23 5 0 444 c0 346 3 445 13 450 6 2 64 4 127 3 l115 -2 0 -450z"/>
</g>
</svg>
