<svg id="Layer_1" data-name="Layer 1" xmlns="http://www.w3.org/2000/svg" viewBox="0 0 560.13 124.48"><path d="M96.81,27.74H76.07v8.54a46.51,46.51,0,0,0-27.66-8.54A46.67,46.67,0,0,0,14.15,41.9,46.68,46.68,0,0,0,0,76.15,46.66,46.66,0,0,0,14.15,110.4a46.67,46.67,0,0,0,34.26,14.16A46.51,46.51,0,0,0,76.09,116a9.13,9.13,0,0,0,9.11,8.58H96.81v-47h0c0-.47,0-.94,0-1.42Zm-48.4,76.07a26.65,26.65,0,0,1-19.56-8.1,26.67,26.67,0,0,1-8.1-19.56,26.68,26.68,0,0,1,8.1-19.56,26.65,26.65,0,0,1,19.56-8.1A26.65,26.65,0,0,1,68,56.59a26.65,26.65,0,0,1,8.11,19.56A26.64,26.64,0,0,1,68,95.71,26.65,26.65,0,0,1,48.41,103.81Z" transform="translate(0 -0.08)"/><path d="M131.39,36.28A48.74,48.74,0,0,1,193.3,41.9a46.65,46.65,0,0,1,14.16,34.25A46.63,46.63,0,0,1,193.3,110.4a48.5,48.5,0,0,1-68.5,0,46.63,46.63,0,0,1-14.16-34.25V.08h20.75Zm47.22,59.43a26.67,26.67,0,0,0,8.1-19.56,27.66,27.66,0,0,0-47.22-19.56,26.68,26.68,0,0,0-8.1,19.56,27.66,27.66,0,0,0,47.22,19.56Z" transform="translate(0 -0.08)"/><path d="M249,27.74h41.49V48.49H252.08q-11,.1-10.7,4.32,0,6.27,23,12Q281.26,69,287.9,75.29t6.64,18q0,15.45-9,23.34t-26.26,7.89h-38l-.11-20.75h37.6q13.62-.54,14.15-7.13,0-5.62-8.86-7.89-29.92-7.46-36.35-14.86a26.3,26.3,0,0,1-6.43-17.88Q221.29,27.54,249,27.74Z" transform="translate(0 -0.08)"/><path d="M325,76.15v48.41H304.27V.08H325v36.2a48.76,48.76,0,0,1,61.92,5.62,46.68,46.68,0,0,1,14.15,34.25v48.41H380.34V76.15a27.67,27.67,0,0,0-55.33,0Z" transform="translate(0 -0.08)"/><path d="M425.29,20.83a10,10,0,0,1-7.35-3,10,10,0,0,1-3-7.34,10,10,0,0,1,3-7.35,10.42,10.42,0,0,1,14.69,0,10,10,0,0,1,3,7.35,10,10,0,0,1-3,7.34A10,10,0,0,1,425.29,20.83Zm10.37,6.91v96.82H414.91V27.74Z" transform="translate(0 -0.08)"/><path d="M449.49,48.49a46.64,46.64,0,0,1,14.15-34.25A46.66,46.66,0,0,1,497.89.08V20.83A27.71,27.71,0,0,0,471.1,41.57h26.79V62.32H470.23v62.24H449.49Z" transform="translate(0 -0.08)"/><path d="M532.47,48.49V76.15a27.66,27.66,0,0,0,27.66,27.66v20.75a46.65,46.65,0,0,1-34.25-14.16,46.63,46.63,0,0,1-14.16-34.25V.08h20.75V27.74h27.66V48.49Z" transform="translate(0 -0.08)"/></svg>